<?xml version="1.0" encoding="UTF-8"?>
<svg version="1.1" xmlns="http://www.w3.org/2000/svg" width="201" height="201">
<path d="M0 0 C66.33 0 132.66 0 201 0 C201 66.33 201 132.66 201 201 C134.67 201 68.34 201 0 201 C0 134.67 0 68.34 0 0 Z " fill="#FCD003" transform="translate(0,0)"/>
<path d="M0 0 C0.99 0 1.98 0 3 0 C4.32 0 5.64 0 7 0 C7.08725659 4.2290362 7.1404789 8.45784012 7.1875 12.6875 C7.21263672 13.88568359 7.23777344 15.08386719 7.26367188 16.31835938 C7.27333984 17.47529297 7.28300781 18.63222656 7.29296875 19.82421875 C7.3086792 20.88729248 7.32438965 21.95036621 7.34057617 23.0456543 C6.95123944 26.42297605 5.98436348 28.26781732 4 31 C0.78463789 33.32836566 -2.11204889 33.25356203 -6 33 C-6.66 32.67 -7.32 32.34 -8 32 C-7.67 36.29 -7.34 40.58 -7 45 C-6.195625 43.845 -5.39125 42.69 -4.5625 41.5 C-2.59723423 39.15770483 -1.63170505 38.12223236 1.40234375 37.53515625 C3.63844091 37.55988402 5.78627681 37.69007875 8 38 C7.57847656 38.53109375 7.15695313 39.0621875 6.72265625 39.609375 C6.17480469 40.31578125 5.62695312 41.0221875 5.0625 41.75 C4.51722656 42.44609375 3.97195312 43.1421875 3.41015625 43.859375 C1.96023221 46.06036773 1.37630279 47.41113208 1 50 C1.58023734 52.07133094 1.58023734 52.07133094 2.65234375 54.109375 C3.01650391 54.86347656 3.38066406 55.61757812 3.75585938 56.39453125 C4.34077148 57.56048828 4.34077148 57.56048828 4.9375 58.75 C5.32357422 59.54277344 5.70964844 60.33554688 6.10742188 61.15234375 C7.06107367 63.10674125 8.0291649 65.05408106 9 67 C6.03 67 3.06 67 0 67 C-2.97 61.555 -2.97 61.555 -6 56 C-7.66342837 57.66342837 -7.36048097 59.7825709 -7.5625 62.0625 C-7.64628906 62.98160156 -7.73007813 63.90070313 -7.81640625 64.84765625 C-7.87699219 65.55792969 -7.93757813 66.26820313 -8 67 C-10.64 67 -13.28 67 -16 67 C-16 53.8 -16 40.6 -16 27 C-13.36 27 -10.72 27 -8 27 C-8 27.66 -8 28.32 -8 29 C-3.9899066 29.17864631 -3.9899066 29.17864631 0 29 C0.66 28.34 1.32 27.68 2 27 C2 25.68 2 24.36 2 23 C1.34 23.33 0.68 23.66 0 24 C-2.875 24.3125 -2.875 24.3125 -6 24 C-8.30275556 22.1329009 -9.67823871 20.64352259 -11 18 C-12.08060911 6.6844789 -12.08060911 6.6844789 -8.875 1.6875 C-5.54950249 -0.26442245 -3.79244396 -0.41222217 0 0 Z " fill="#9C0600" transform="translate(129,67)"/>
<path d="M0 0 C0.99 0.66 1.98 1.32 3 2 C5.28397032 1.65394389 6.93409037 1.03295481 9 0 C13.03840633 -0.45717808 15.24156254 -0.48194657 18.7109375 1.72265625 C22.26773112 6.81506213 21.53267778 11.7660795 21.3125 17.8125 C21.28994141 18.98232422 21.26738281 20.15214844 21.24414062 21.35742188 C21.18532091 24.23958769 21.10317141 27.11913681 21 30 C18.36 30 15.72 30 13 30 C12.67 22.74 12.34 15.48 12 8 C9.69 8.33 7.38 8.66 5 9 C5 15.93 5 22.86 5 30 C2.36 30 -0.28 30 -3 30 C-3 22.41 -3 14.82 -3 7 C-4.98 7.66 -6.96 8.32 -9 9 C-9.33 15.93 -9.66 22.86 -10 30 C-12.64 30 -15.28 30 -18 30 C-18 20.43 -18 10.86 -18 1 C-15.03 1 -12.06 1 -9 1 C-5.98131566 -0.50934217 -3.32702771 -0.17510672 0 0 Z " fill="#9D0700" transform="translate(59,104)"/>
<path d="M0 0 C2.64 0 5.28 0 8 0 C8 13.2 8 26.4 8 40 C4.66666667 40 1.33333333 40 -2 40 C-2.67675781 40.08121094 -3.35351562 40.16242188 -4.05078125 40.24609375 C-10.02411997 40.75160946 -10.02411997 40.75160946 -12.88671875 38.546875 C-17.35124007 33.401325 -18.30299749 29.23297501 -18.21484375 22.50390625 C-17.80922582 17.77661362 -15.94645934 14.99904041 -12.75 11.625 C-9.27106045 9.56926299 -6.97832419 9.6246864 -3 10 C-2.34 10.33 -1.68 10.66 -1 11 C-0.67 7.37 -0.34 3.74 0 0 Z " fill="#9D0600" transform="translate(27,94)"/>
<path d="M0 0 C4.52785438 0.37113561 6.39371978 1.35991708 9.8125 4.3125 C13.1635652 9.11569345 13.5334467 13.64368625 12.8125 19.3125 C11.22240276 24.41754903 9.55529649 27.67761306 4.8125 30.3125 C1.32722534 30.78167159 -1.97440798 30.91904601 -5.1875 29.3125 C-5.1875 32.9425 -5.1875 36.5725 -5.1875 40.3125 C-7.8275 40.3125 -10.4675 40.3125 -13.1875 40.3125 C-13.1875 27.4425 -13.1875 14.5725 -13.1875 1.3125 C-10.2175 1.3125 -7.2475 1.3125 -4.1875 1.3125 C-3.1875 0.3125 -3.1875 0.3125 0 0 Z " fill="#9D0600" transform="translate(177.1875,103.6875)"/>
<path d="M0 0 C2.93423195 1.79646854 4.47205355 2.9441071 6 6 C6.08471364 7.81341842 6.10721083 9.62994161 6.09765625 11.4453125 C6.09443359 12.52167969 6.09121094 13.59804687 6.08789062 14.70703125 C6.07951172 15.83496094 6.07113281 16.96289062 6.0625 18.125 C6.05798828 19.26066406 6.05347656 20.39632812 6.04882812 21.56640625 C6.03701615 24.37765638 6.02054507 27.1888023 6 30 C2.33333333 30 -1.33333333 30 -5 30 C-5.7321875 30.05800781 -6.464375 30.11601562 -7.21875 30.17578125 C-13.34526326 30.54295242 -13.34526326 30.54295242 -16.5625 27.875 C-18.25419769 24.49160462 -18.62195931 22.73175586 -18 19 C-15.42175841 14.17980919 -12.09492904 12.99862084 -7.12109375 11.48046875 C-5 11 -5 11 -2 11 C-2.33 9.68 -2.66 8.36 -3 7 C-5.41645782 6.83312552 -5.41645782 6.83312552 -8 7 C-8.66 7.66 -9.32 8.32 -10 9 C-12.26274788 8.64644564 -13.95088852 8.02455574 -16 7 C-12.93052134 -0.41790676 -7.33401902 -1.10366306 0 0 Z " fill="#9D0800" transform="translate(101,104)"/>
<path d="M0 0 C0.99 0 1.98 0 3 0 C4.32 0 5.64 0 7 0 C7.08725659 4.2290362 7.1404789 8.45784012 7.1875 12.6875 C7.21263672 13.88568359 7.23777344 15.08386719 7.26367188 16.31835938 C7.27333984 17.47529297 7.28300781 18.63222656 7.29296875 19.82421875 C7.3086792 20.88729248 7.32438965 21.95036621 7.34057617 23.0456543 C6.95123944 26.42297605 5.98436348 28.26781732 4 31 C0.78463789 33.32836566 -2.11204889 33.25356203 -6 33 C-6.66 32.67 -7.32 32.34 -8 32 C-8 31.01 -8 30.02 -8 29 C-6.72125 29.04125 -5.4425 29.0825 -4.125 29.125 C-1.98128508 29.24212873 -1.98128508 29.24212873 0 29 C0.66 28.34 1.32 27.68 2 27 C2 25.68 2 24.36 2 23 C1.34 23.33 0.68 23.66 0 24 C-2.875 24.3125 -2.875 24.3125 -6 24 C-8.30275556 22.1329009 -9.67823871 20.64352259 -11 18 C-12.08060911 6.6844789 -12.08060911 6.6844789 -8.875 1.6875 C-5.54950249 -0.26442245 -3.79244396 -0.41222217 0 0 Z " fill="#1C6547" transform="translate(129,67)"/>
<path d="M0 0 C3.52920287 0.75245269 6.0822948 2.44939445 9.0703125 4.44140625 C9.0703125 5.10140625 9.0703125 5.76140625 9.0703125 6.44140625 C7.0703125 8.06640625 7.0703125 8.06640625 5.0703125 9.44140625 C4.4928125 9.11140625 3.9153125 8.78140625 3.3203125 8.44140625 C0.87147388 7.17064727 0.87147388 7.17064727 -2.9296875 7.44140625 C-3.2596875 8.43140625 -3.5896875 9.42140625 -3.9296875 10.44140625 C-3.32640625 10.6115625 -2.723125 10.78171875 -2.1015625 10.95703125 C6.48271142 13.56000463 6.48271142 13.56000463 9.0703125 17.44140625 C10.0703125 20.87890625 10.0703125 20.87890625 10.0703125 24.44140625 C8.30390078 27.24330071 7.03981428 28.95665536 4.0703125 30.44140625 C-0.83384729 30.97945256 -5.34605093 31.29079417 -9.5546875 28.44140625 C-10.3384375 27.78140625 -11.1221875 27.12140625 -11.9296875 26.44140625 C-11.6796875 24.56640625 -11.6796875 24.56640625 -10.9296875 22.44140625 C-8.8671875 21.19140625 -8.8671875 21.19140625 -6.9296875 20.44140625 C-6.5584375 20.91578125 -6.1871875 21.39015625 -5.8046875 21.87890625 C-3.30321788 23.96346427 -1.11375332 24.08762116 2.0703125 24.44140625 C2.0703125 23.12140625 2.0703125 21.80140625 2.0703125 20.44140625 C1.0390625 20.21453125 0.0078125 19.98765625 -1.0546875 19.75390625 C-5.42059665 18.46458481 -7.87503407 16.86857839 -10.9296875 13.44140625 C-11.73862906 10.58699816 -11.68558162 8.30341757 -10.9296875 5.44140625 C-7.98011637 1.01704956 -5.37730926 -0.31691366 0 0 Z " fill="#9E0800" transform="translate(149.9296875,103.55859375)"/>
<path d="M0 0 C2.850716 2.01824195 4.72764237 3.55749464 5.39624023 7.09863281 C5.49209277 9.52215106 5.43675588 11.89046622 5.3125 14.3125 C5.28994141 15.14845703 5.26738281 15.98441406 5.24414062 16.84570312 C5.1855061 18.89791149 5.09583215 20.94919202 5 23 C-5.78014715 24.73651493 -5.78014715 24.73651493 -10.3125 22 C-12 19 -12 19 -12.125 15.375 C-11 12 -11 12 -8.875 10.0625 C-5.43298792 8.79045206 -2.64158426 8.78578916 1 9 C0.67 7.35 0.34 5.7 0 4 C-3.3 4 -6.6 4 -10 4 C-10 3.01 -10 2.02 -10 1 C-6.84203893 -0.57898053 -3.39329364 -0.81928171 0 0 Z " fill="#186348" transform="translate(85,67)"/>
<path d="M0 0 C2.7421875 1.41015625 2.7421875 1.41015625 5 4 C5.61409034 7.27022971 5.471518 10.43753284 5.3125 13.75 C5.28994141 14.63816406 5.26738281 15.52632812 5.24414062 16.44140625 C5.18532552 18.62932812 5.10321268 20.81379671 5 23 C4.1028125 22.690625 4.1028125 22.690625 3.1875 22.375 C0.71549154 21.69328085 0.71549154 21.69328085 -2 24 C-8.13545817 23.78087649 -8.13545817 23.78087649 -10.9375 21.25 C-12.27285061 18.42219872 -12.67690255 17.08366716 -12 14 C-8.57043547 10.23584381 -7.25527959 9.10123222 -2.125 8.6875 C-1.09375 8.790625 -0.0625 8.89375 1 9 C0.67 7.35 0.34 5.7 0 4 C-2.97 4 -5.94 4 -9 4 C-9.33 3.01 -9.66 2.02 -10 1 C-6.85154494 -0.57422753 -3.40781928 -0.66928343 0 0 Z " fill="#146149" transform="translate(152,67)"/>
<path d="M0 0 C3.97245401 0.70936679 5.67231707 1.79731707 8.5 4.625 C9.5 6.625 9.5 6.625 9.5 13.625 C4.88 13.625 0.26 13.625 -4.5 13.625 C-4.17 15.935 -3.84 18.245 -3.5 20.625 C0.13 20.625 3.76 20.625 7.5 20.625 C7.5 21.615 7.5 22.605 7.5 23.625 C4.28070427 25.23464787 0.98112288 25.23186242 -2.5 24.625 C-6.34075487 21.60142702 -8.18218021 19.26290422 -8.7734375 14.35546875 C-8.94593747 10.03633483 -9.05491088 6.59572183 -6.4375 3 C-3.5 0.625 -3.5 0.625 0 0 Z " fill="#216745" transform="translate(37.5,66.375)"/>
<path d="M0 0 C1.32 0 2.64 0 4 0 C4.33 6.27 4.66 12.54 5 19 C7.64 15.7 10.28 12.4 13 9 C14.32 9.33 15.64 9.66 17 10 C16.22462891 10.88751953 16.22462891 10.88751953 15.43359375 11.79296875 C14.44552734 12.97826172 14.44552734 12.97826172 13.4375 14.1875 C12.77621094 14.96480469 12.11492188 15.74210937 11.43359375 16.54296875 C9.75848161 18.90137289 9.75848161 18.90137289 10.125 21.6015625 C10.99911554 23.99757562 11.8301738 25.34659495 13.5625 27.1875 C16 30 16 30 16 32 C13.46089803 31.61479436 12.27248877 31.29902057 10.515625 29.37109375 C9.88914062 28.41396484 9.88914062 28.41396484 9.25 27.4375 C8.60804687 26.47650391 8.60804687 26.47650391 7.953125 25.49609375 C7.63859375 25.00238281 7.3240625 24.50867188 7 24 C6.34 24.33 5.68 24.66 5 25 C4.53476937 26.89533342 4.53476937 26.89533342 4.375 29.0625 C4.189375 31.0115625 4.189375 31.0115625 4 33 C2.68 33 1.36 33 0 33 C0 22.11 0 11.22 0 0 Z " fill="#296B43" transform="translate(9,58)"/>
<path d="M0 0 C1.32 0.33 2.64 0.66 4 1 C4.33 0.67 4.66 0.34 5 0 C9.13821132 -0.47748592 11.25925464 -0.52118631 14.71484375 1.91015625 C17.91689293 6.23976463 17.56599904 9.5826199 17.3125 14.8125 C17.28994141 15.69615234 17.26738281 16.57980469 17.24414062 17.49023438 C17.18547428 19.6608891 17.09579979 21.8306669 17 24 C15.68 24 14.36 24 13 24 C12.97494385 23.42967041 12.9498877 22.85934082 12.92407227 22.27172852 C12.80843451 19.70173843 12.68556376 17.13214473 12.5625 14.5625 C12.52318359 13.66466797 12.48386719 12.76683594 12.44335938 11.84179688 C12.40146484 10.98779297 12.35957031 10.13378906 12.31640625 9.25390625 C12.27974854 8.46314697 12.24309082 7.6723877 12.20532227 6.85766602 C12.19436743 4.98598559 12.19436743 4.98598559 11 4 C8 3.83333333 8 3.83333333 5 4 C3.48578999 5.51421001 3.78690144 6.92472768 3.68359375 9.03515625 C3.62075195 10.24848633 3.62075195 10.24848633 3.55664062 11.48632812 C3.51732422 12.33646484 3.47800781 13.18660156 3.4375 14.0625 C3.39431641 14.91650391 3.35113281 15.77050781 3.30664062 16.65039062 C3.20023298 18.76672037 3.09958269 20.88333813 3 23 C2.01 23 1.02 23 0 23 C0 15.41 0 7.82 0 0 Z " fill="#2C6D41" transform="translate(96,67)"/>
<path d="M0 0 C1.32 0.33 2.64 0.66 4 1 C4.66 0.67 5.32 0.34 6 0 C9.85546909 -0.51406255 11.47418205 -0.37481775 14.6796875 1.91015625 C17.9286169 6.23659254 17.56702207 9.56151399 17.3125 14.8125 C17.28994141 15.69615234 17.26738281 16.57980469 17.24414062 17.49023438 C17.18547428 19.6608891 17.09579979 21.8306669 17 24 C15.68 23.67 14.36 23.34 13 23 C12.93941406 21.71222656 12.87882813 20.42445312 12.81640625 19.09765625 C12.73201753 17.41925841 12.6473687 15.74087364 12.5625 14.0625 C12.52318359 13.21236328 12.48386719 12.36222656 12.44335938 11.48632812 C12.38051758 10.27299805 12.38051758 10.27299805 12.31640625 9.03515625 C12.27974854 8.2862915 12.24309082 7.53742676 12.20532227 6.76586914 C12.18228937 4.97538674 12.18228937 4.97538674 11 4 C8 3.83333333 8 3.83333333 5 4 C3.48578999 5.51421001 3.78690144 6.92472768 3.68359375 9.03515625 C3.62075195 10.24848633 3.62075195 10.24848633 3.55664062 11.48632812 C3.51732422 12.33646484 3.47800781 13.18660156 3.4375 14.0625 C3.39431641 14.91650391 3.35113281 15.77050781 3.30664062 16.65039062 C3.20023298 18.76672037 3.09958269 20.88333813 3 23 C2.01 23 1.02 23 0 23 C0 15.41 0 7.82 0 0 Z " fill="#2A6B42" transform="translate(163,67)"/>
<path d="M0 0 C0.99 0 1.98 0 3 0 C3.04898438 1.27617188 3.09796875 2.55234375 3.1484375 3.8671875 C3.22346191 5.53648072 3.29900988 7.20575046 3.375 8.875 C3.4059375 9.71675781 3.436875 10.55851562 3.46875 11.42578125 C3.50742187 12.23144531 3.54609375 13.03710938 3.5859375 13.8671875 C3.6173584 14.61081543 3.6487793 15.35444336 3.68115234 16.12060547 C3.85419551 18.24010974 3.85419551 18.24010974 6 20 C7.98 19.67 9.96 19.34 12 19 C12.33 12.73 12.66 6.46 13 0 C14.32 0 15.64 0 17 0 C17.10829314 2.89684158 17.18743954 5.78961019 17.25 8.6875 C17.30027344 9.91243164 17.30027344 9.91243164 17.3515625 11.16210938 C17.41862016 15.30292007 17.35846774 17.4274885 15.109375 21.01953125 C12.61112424 23.36511113 11.58355472 23.9221927 8.1875 24.375 C5 24 5 24 2.3203125 22.08984375 C-0.9286169 17.76340746 -0.56702207 14.43848601 -0.3125 9.1875 C-0.28994141 8.30384766 -0.26738281 7.42019531 -0.24414062 6.50976562 C-0.18547428 4.3391109 -0.09579979 2.1693331 0 0 Z " fill="#1D6546" transform="translate(52,67)"/>
<path d="M0 0 C2.77809395 2.77809395 2.29955703 4.56755203 2.3125 8.4375 C2.32925781 9.59121094 2.34601563 10.74492188 2.36328125 11.93359375 C2 15 2 15 0.63671875 16.8828125 C-1.7373539 18.50330123 -3.19459871 18.49094522 -6 18 C-8.9786113 14.93587833 -9.40933496 12.64353264 -9.375 8.4375 C-9.38273437 7.48746094 -9.39046875 6.53742188 -9.3984375 5.55859375 C-9 3 -9 3 -7.66796875 1.1796875 C-5.11131307 -0.62853268 -3.03654333 -0.32303652 0 0 Z " fill="#F6CD02" transform="translate(130,70)"/>
<path d="M0 0 C3.125 0.3125 3.125 0.3125 5 1.75 C6.69196458 5.60391933 6.80708814 9.17449861 6.125 13.3125 C4.4375 15.9375 4.4375 15.9375 2.125 17.3125 C-2.175 17.0125 -2.175 17.0125 -3.875 15.3125 C-3.97409302 12.98089945 -4.00470504 10.64620058 -4 8.3125 C-4.00257813 7.03375 -4.00515625 5.755 -4.0078125 4.4375 C-3.83694376 0.4170591 -3.83694376 0.4170591 0 0 Z " fill="#F8C800" transform="translate(175.875,110.6875)"/>
<path d="M0 0 C2.31 0.33 4.62 0.66 7 1 C7.05384521 3.29141286 7.09272087 5.58318188 7.125 7.875 C7.14820313 9.15117188 7.17140625 10.42734375 7.1953125 11.7421875 C7 15 7 15 5 17 C2 16.875 2 16.875 -1 16 C-3.51343621 13.14382249 -3.34446224 9.55743285 -3.26953125 5.90625 C-2.90228464 3.30891168 -1.83313154 1.83313154 0 0 Z " fill="#F9CA00" transform="translate(20,111)"/>
<path d="M0 0 C1.32 0.33 2.64 0.66 4 1 C4.99 1 5.98 1 7 1 C7.99 1.66 8.98 2.32 10 3 C8.02 3.66 6.04 4.32 4 5 C3.67 10.94 3.34 16.88 3 23 C2.01 23 1.02 23 0 23 C0 15.41 0 7.82 0 0 Z " fill="#075B4D" transform="translate(96,67)"/>
<path d="M0 0 C2.01822917 0.06510417 4.03645833 0.13020833 6.0546875 0.1953125 C5.3046875 6.9453125 5.3046875 6.9453125 3.0546875 9.1953125 C0.5546875 9.4453125 0.5546875 9.4453125 -1.9453125 9.1953125 C-3.9453125 7.1953125 -3.9453125 7.1953125 -4.1953125 4.6953125 C-3.88754876 1.61767512 -3.20963914 0.32225293 0 0 Z " fill="#EBC805" transform="translate(80.9453125,78.8046875)"/>
<path d="M0 0 C2.01822917 0.06510417 4.03645833 0.13020833 6.0546875 0.1953125 C5.7421875 3.5703125 5.7421875 3.5703125 5.0546875 7.1953125 C2.0546875 9.1953125 2.0546875 9.1953125 -0.5703125 8.8828125 C-2.9453125 8.1953125 -2.9453125 8.1953125 -3.9453125 7.1953125 C-4.1328125 4.7578125 -4.1328125 4.7578125 -3.9453125 2.1953125 C-1.9453125 0.1953125 -1.9453125 0.1953125 0 0 Z " fill="#EEC904" transform="translate(147.9453125,78.8046875)"/>
<path d="M0 0 C0.66 0.33 1.32 0.66 2 1 C1.70703125 3.05078125 1.4140625 5.1015625 1.12109375 7.15234375 C1.08113281 7.76207031 1.04117188 8.37179688 1 9 C1.33 9.33 1.66 9.66 2 10 C2.969375 10 3.93875 10 4.9375 10 C8 10 8 10 10 11 C9.67 11.66 9.34 12.32 9 13 C6.01273193 13.74681702 3.99775546 14.21934796 1 14 C-2.0625 12 -2.0625 12 -4 9 C-4 5.3125 -4 5.3125 -3 2 C-2.01 1.34 -1.02 0.68 0 0 Z " fill="#1A6447" transform="translate(77,77)"/>
<path d="M0 0 C0.99 0 1.98 0 3 0 C4.32575494 4.82181981 3.90062439 9.38832067 3.5625 14.3125 C3.51029297 15.14845703 3.45808594 15.98441406 3.40429688 16.84570312 C3.27532629 18.89750789 3.13844979 20.94881306 3 23 C2.01 23 1.02 23 0 23 C0 15.41 0 7.82 0 0 Z " fill="#03594F" transform="translate(163,67)"/>
<path d="M0 0 C3 0.25 3 0.25 5 2.25 C5 3.9 5 5.55 5 7.25 C1.7 7.25 -1.6 7.25 -5 7.25 C-5 0.41666667 -5 0.41666667 0 0 Z " fill="#F0CA04" transform="translate(38,69.75)"/>
<path d="M0 0 C1.875 0.1875 1.875 0.1875 4 1 C5.25 3.5625 5.25 3.5625 6 6 C7.98 6 9.96 6 12 6 C12 6.99 12 7.98 12 9 C8.8125 9.8125 8.8125 9.8125 5 10 C2.0625 7.875 2.0625 7.875 0 5 C-0.3125 2.1875 -0.3125 2.1875 0 0 Z " fill="#246944" transform="translate(140,81)"/>
<path d="M0 0 C0.1875 2.375 0.1875 2.375 0 5 C-3 7 -3 7 -5.6875 6.625 C-6.450625 6.41875 -7.21375 6.2125 -8 6 C-7.6875 4.125 -7.6875 4.125 -7 2 C-4 0 -4 0 0 0 Z " fill="#F7C500" transform="translate(99,121)"/>
<path d="M0 0 C1.32 0.33 2.64 0.66 4 1 C2.95153459 2.46845587 1.88556239 3.92442099 0.8125 5.375 C0.22082031 6.18710938 -0.37085938 6.99921875 -0.98046875 7.8359375 C-3.19553039 10.20952387 -4.93353141 11.03610141 -8 12 C-6.59023295 8.96147295 -4.91129772 6.4060405 -2.875 3.75 C-2.06675781 2.69039063 -2.06675781 2.69039063 -1.2421875 1.609375 C-0.83226562 1.07828125 -0.42234375 0.5471875 0 0 Z " fill="#1A6447" transform="translate(22,67)"/>
<path d="M0 0 C0.66 0.33 1.32 0.66 2 1 C1.34 3.31 0.68 5.62 0 8 C-0.66 7.01 -1.32 6.02 -2 5 C-2.66 6.32 -3.32 7.64 -4 9 C-3.6875 5.625 -3.6875 5.625 -3 2 C-2.01 1.34 -1.02 0.68 0 0 Z " fill="#36713E" transform="translate(77,77)"/>
<path d="M0 0 C1.98 0.495 1.98 0.495 4 1 C3.67 2.32 3.34 3.64 3 5 C1.68 4.67 0.36 4.34 -1 4 C-0.67 2.68 -0.34 1.36 0 0 Z " fill="#296B43" transform="translate(186,86)"/>
<path d="M0 0 C2 0.6875 2 0.6875 4 2.6875 C1.69 3.0175 -0.62 3.3475 -3 3.6875 C-3.33 2.6975 -3.66 1.7075 -4 0.6875 C-2 -0.3125 -2 -0.3125 0 0 Z " fill="#1E6646" transform="translate(146,67.3125)"/>
<path d="M0 0 C0.598125 0.165 1.19625 0.33 1.8125 0.5 C4.11344336 1.1114124 4.11344336 1.1114124 7 1 C7.99 1.66 8.98 2.32 10 3 C4.25 4.125 4.25 4.125 2 3 C2 2.34 2 1.68 2 1 C1.34 0.67 0.68 0.34 0 0 Z " fill="#276A43" transform="translate(96,67)"/>
</svg>
